<?xml version="1.0" encoding="UTF-8" standalone="no"?>
<!DOCTYPE svg PUBLIC "-//W3C//DTD SVG 1.1//EN" "http://www.w3.org/Graphics/SVG/1.1/DTD/svg11.dtd">
<!-- Generated by Microsoft Visio, SVG Export sanofi_white.svg devices-24px -->
<svg xmlns="http://www.w3.org/2000/svg" xmlns:xlink="http://www.w3.org/1999/xlink" xmlns:ev="http://www.w3.org/2001/xml-events"
		xmlns:v="http://schemas.microsoft.com/visio/2003/SVGExtensions/" width="0.25in" height="0.25in" viewBox="0 0 18 18"
		xml:space="preserve" color-interpolation-filters="sRGB" class="st4">
	<v:documentProperties v:langID="1031" v:viewMarkup="false"/>

	<style type="text/css">
	<![CDATA[
		.st1 {fill:#ffffff}
		.st2 {stroke:none;stroke-linecap:butt;stroke-width:7.97904}
		.st3 {fill:#ffffff;stroke:none;stroke-linecap:butt;stroke-width:7.97904}
		.st4 {fill:none;fill-rule:evenodd;font-size:12px;overflow:visible;stroke-linecap:square;stroke-miterlimit:3}
	]]>
	</style>

	<g v:mID="0" v:index="1" v:groupContext="foregroundPage">
		<title>devices-24px</title>
		<v:pageProperties v:drawingScale="1" v:pageScale="1" v:drawingUnits="19" v:shadowOffsetX="9" v:shadowOffsetY="-9"/>
		<g id="shape14-1" v:mID="14" v:groupContext="shape" transform="translate(4.81613,-11.7196)">
			<title>path3087</title>
			<path d="M12.77 18 C9.87 13.74 6.61 17.48 3.35 17.02 C0.11 16.56 0 12.12 3.99 11.74 C4.08 11.73 4.18 11.72 4.28 11.72
						 C8.26 11.76 11.62 14.39 12.77 18 L12.77 18 Z" class="st1"/>
			<path d="M12.77 18 C9.87 13.74 6.61 17.48 3.35 17.02 C0.11 16.56 0 12.12 3.99 11.74 C4.08 11.73 4.18 11.72 4.28 11.72
						 C8.26 11.76 11.62 14.39 12.77 18" class="st2"/>
		</g>
		<g id="shape15-4" v:mID="15" v:groupContext="shape" transform="translate(3.25842,7.9324E-005)">
			<title>path3091</title>
			<path d="M14.4 6.53 C14.63 7.32 14.74 8.14 14.74 9 C14.74 13.97 10.71 18 5.74 18 C3.56 18 1.56 17.22 0 15.93 C0.61 16.17
						 1.34 16.27 1.96 16.28 C10.11 16.32 6.63 5.48 14.4 6.53 Z" class="st3"/>
		</g>
		<g id="shape16-6" v:mID="16" v:groupContext="shape" transform="translate(1.9984E-015,-2.12665)">
			<title>path3095</title>
			<path d="M5.71 17.31 C4.58 18 2.79 17.79 1.55 16.09 C1.27 15.71 1.04 15.33 0.85 14.95 C0.3 13.79 0 12.49 0 11.12 C0 10.76
						 0.02 10.4 0.06 10.05 C2.03 12.69 4.29 12.61 5.72 13.47 C6.36 13.87 6.78 14.58 6.78 15.39 C6.78 16.2 6.35
						 16.92 5.71 17.31 Z" class="st3"/>
		</g>
	</g>
</svg>
